<?xml version="1.0" standalone="no"?>
<!DOCTYPE svg PUBLIC "-//W3C//DTD SVG 20010904//EN"
 "http://www.w3.org/TR/2001/REC-SVG-20010904/DTD/svg10.dtd">
<svg version="1.0" xmlns="http://www.w3.org/2000/svg"
 width="500.000000pt" height="500.000000pt" viewBox="0 0 500.000000 500.000000"
 preserveAspectRatio="xMidYMid meet">
<metadata>
Created by potrace 1.14, written by Peter Selinger 2001-2017
</metadata>
<g transform="translate(0.000000,500.000000) scale(0.100000,-0.100000)"
fill="#000000" stroke="none">
<path d="M1200 2466 l0 -856 288 0 c316 0 427 11 560 55 247 83 412 261 482
520 31 114 39 383 15 510 -46 249 -176 429 -380 531 -166 82 -199 87 -607 92
l-358 4 0 -856z m715 660 c221 -61 351 -190 412 -406 26 -94 26 -396 0 -490
-32 -113 -75 -189 -152 -265 -132 -133 -261 -174 -572 -182 l-203 -6 0 688 0
687 228 -5 c170 -3 242 -8 287 -21z"/>
<path d="M2730 3235 l0 -85 270 0 270 0 0 -770 0 -770 100 0 100 0 2 768 3
767 268 3 267 2 0 85 0 85 -640 0 -640 0 0 -85z"/>
</g>
</svg>
